# xmcd
#
# Track frame offsets:
# 150
# 15564
# 32692
# 52118
# 70482
# 91049
# 108212
# 127603
# 144740
# 170610
#
# Disc length: 2620 seconds
#
#
# Revision: 0
# Processed by: cddbd v1.5.2PL0 Copyright (c) Steve Scherf et al.
# Submitted via: FreeRIP 2.944 
#
DISCID=7e0a3a0a
DTITLE=Bobby Long - Dangerous Summer Tour
DYEAR=2009
DGENRE=Blues
TTITLE0=So Tear Me Up
TTITLE1=The Borough Mill
TTITLE2=Sick Man Blues
TTITLE3=In The Forest
TTITLE4=Cold Cold Loving
TTITLE5=The Rattle And The Roll
TTITLE6=My Darling Bell
TTITLE7=A Passing Tale
TTITLE8=Two Tone Lover
TTITLE9=Girl From The Keys
EXTD=
EXTT0=
EXTT1=
EXTT2=
EXTT3=
EXTT4=
EXTT5=
EXTT6=
EXTT7=
EXTT8=
EXTT9=
PLAYORDER=
